<?xml version="1.0" encoding="utf-8"?>
<!-- Generator: Adobe Illustrator 26.2.1, SVG Export Plug-In . SVG Version: 6.00 Build 0)  -->
<svg version="1.1" id="Layer_1" xmlns="http://www.w3.org/2000/svg" xmlns:xlink="http://www.w3.org/1999/xlink" x="0px" y="0px"
	 viewBox="0 0 204.55 240.45" style="enable-background:new 0 0 204.55 240.45;" xml:space="preserve">
<style type="text/css">
	.st0{fill:url(#SVGID_1_);}
</style>
<linearGradient id="SVGID_1_" gradientUnits="userSpaceOnUse" x1="25.3108" y1="196.5163" x2="179.2434" y2="42.5837">
	<stop  offset="0" style="stop-color:#00FA82"/>
	<stop  offset="1" style="stop-color:#21FFE5"/>
</linearGradient>
<path class="st0" d="M140.14,101.38l19.37-14.27l-33.28-18.92l-55.9-35.14l0,0l-7.32-4.45L5.11,62.78v113.54l97.16,58.12
	l22.63-13.52l-22.63-13.52l-74.54-43.25V76.3l34.61-21.63l17.3,10.81L45.04,87.11v66.23l30.61,17.57l63.89,37.85l2.66,1.35
	l2.66-1.35l54.57-32.44V62.78L102.28,6.01L79.65,19.53l33.27,18.92l63.89,37.85v87.86l-34.61,20.27l-17.3-10.81l34.61-20.27v-44.6
	h-57.23v22.98h34.61v8.11l-34.61,20.27l-34.61-20.27V99.28l33.09-20.44l24.15,13.69L140.14,101.38z"/>
</svg>
